<?xml version="1.0" standalone="no"?>
<!DOCTYPE svg PUBLIC "-//W3C//DTD SVG 20010904//EN"
 "http://www.w3.org/TR/2001/REC-SVG-20010904/DTD/svg10.dtd">
<svg version="1.0" xmlns="http://www.w3.org/2000/svg"
 width="581.000000pt" height="429.000000pt" viewBox="0 0 581.000000 429.000000"
 preserveAspectRatio="xMidYMid meet">

<g transform="translate(0.000000,429.000000) scale(0.100000,-0.100000)"
fill="#000000" stroke="none">
<path d="M1180 2585 l0 -905 345 0 345 0 2 663 3 662 92 3 c61 2 95 7 102 16
8 9 11 84 9 237 l-3 224 -447 3 -448 2 0 -905z m492 -716 c35 -46 -8 -100 -68
-85 -45 12 -51 80 -10 109 20 14 59 2 78 -24z"/>
<path d="M2000 2943 c-8 -3 -23 -12 -32 -21 -17 -14 -18 -61 -18 -722 0 -672
1 -708 18 -723 17 -16 112 -17 1160 -17 l1141 0 15 22 c14 20 16 105 16 724 0
700 0 701 -21 720 -20 18 -55 19 -1143 21 -616 1 -1128 -1 -1136 -4z m2098
-743 l2 -540 -975 0 -975 0 0 538 c0 296 2 541 4 543 2 2 440 3 973 2 l968 -3
3 -540z"/>
<path d="M2994 2562 c-60 -40 -34 -212 38 -252 25 -14 29 -13 53 10 49 46 55
138 14 207 -11 17 -26 34 -35 37 -21 8 -57 7 -70 -2z"/>
<path d="M3211 2532 c-23 -22 -31 -42 -36 -86 -18 -145 63 -207 133 -101 37
58 49 118 32 168 -14 40 -17 42 -58 45 -36 3 -47 -1 -71 -26z"/>
<path d="M2821 2351 c-44 -44 -39 -122 13 -178 41 -45 88 -50 118 -12 60 73
-66 255 -131 190z"/>
<path d="M3371 2294 c-41 -34 -61 -74 -61 -121 0 -89 65 -111 130 -45 46 46
59 96 38 150 -18 49 -60 56 -107 16z"/>
<path d="M3068 2198 c-29 -10 -126 -139 -159 -212 -24 -52 -24 -79 -1 -99 23
-21 55 -21 118 -1 90 29 113 32 152 22 106 -27 119 -29 145 -19 23 9 27 16 27
49 0 54 -50 150 -114 217 -48 51 -55 55 -96 54 -25 0 -57 -5 -72 -11z"/>
<path d="M3110 1309 c-14 -6 -37 -22 -52 -36 -78 -75 -20 -213 88 -213 25 0
58 7 74 15 86 44 76 193 -15 231 -39 16 -60 17 -95 3z"/>
</g>
</svg>
